<?xml version="1.0" encoding="UTF-8"?>
<svg width="200px" height="200px" viewBox="0 0 200 200" version="1.1" xmlns="http://www.w3.org/2000/svg" xmlns:xlink="http://www.w3.org/1999/xlink">
    <title>img_nodata</title>
    <defs>
        <rect id="path-1" x="0" y="0" width="200" height="200"></rect>
        <path d="M0,16.9364269 C0.76836905,16.6878421 43.9162353,-5.55785918 62.0435509,1.31857842 C65.3252934,2.56347858 67.5860423,5.81555732 70.8639541,7.0705134 C81.1367645,11.0034825 93.690586,10.0584354 102.405473,16.7712332 C106.247049,19.7302756 92.9367665,18.9517868 88.3571475,20.5449583 C80.9398177,23.1253209 73.8734608,26.6439885 66.472737,29.27162 C61.1600824,31.1578812 55.8785457,33.6642494 50.2559161,34.0728234 C47.8442111,34.2480723 46.0288731,31.6435251 43.7199966,30.9249704 C-1.0694532,16.9858658 26.050545,28.0590043 3.56779576,18.4718809 L0,16.9364269 Z" id="path-3"></path>
        <filter x="-1.5%" y="-4.4%" width="102.9%" height="108.8%" filterUnits="objectBoundingBox" id="filter-5">
            <feOffset dx="0" dy="3" in="SourceAlpha" result="shadowOffsetInner1"></feOffset>
            <feComposite in="shadowOffsetInner1" in2="SourceAlpha" operator="arithmetic" k2="-1" k3="1" result="shadowInnerInner1"></feComposite>
            <feColorMatrix values="0 0 0 0 1   0 0 0 0 1   0 0 0 0 1  0 0 0 1 0" type="matrix" in="shadowInnerInner1"></feColorMatrix>
        </filter>
    </defs>
    <g id="页面-1" stroke="none" stroke-width="1" fill="none" fill-rule="evenodd">
        <g id="wallet_nodata" transform="translate(-609, -365)">
            <g id="img_nodata" transform="translate(609, 365)">
                <mask id="mask-2" fill="white">
                    <use xlink:href="#path-1"></use>
                </mask>
                <g id="蒙版"></g>
                <g id="编组-5" mask="url(#mask-2)">
                    <g transform="translate(0, 45)">
                        <ellipse id="椭圆形备份-3" fill="#E8E8E8" cx="100" cy="104.463087" rx="100" ry="17.5369128"></ellipse>
                        <g id="编组-7" stroke-width="1" fill="none" transform="translate(28, 0)">
                            <path d="M16.2469085,62.9230718 C16.7867604,74.5847483 13.8185458,83.402119 17.8664642,94.3517284 C19.443815,98.6184585 26.5891757,96.9832459 30.7941102,98.716844 C35.5730393,100.687087 39.9283728,103.624682 44.7673656,105.442354 C53.5204961,108.730293 62.1307542,114.0076 71.4808014,114.000455 C78.6263273,113.994178 84.4607511,107.997481 91.1194654,105.404637 C102.202397,101.089043 114.230772,98.9689867 124.67857,93.285257 C126.667321,92.2033522 125.712194,88.8388102 125.732804,86.5745588 C125.814886,77.5571962 125.234813,74.5708393 124.985817,65.5565428" id="路径-18" stroke="#1B1B1B" stroke-width="2.44111522" fill="#FFFFFF" stroke-linecap="round"></path>
                            <path d="M71.9280522,57.6418073 C72.2350508,76.6142665 71.6210537,95.0275408 71.9280522,114" id="路径-19" stroke="#1B1B1B" stroke-width="2.44111522" stroke-linecap="round"></path>
                            <g id="编组-6">
                                <path d="M71.1381564,53.1849972 C75.5500057,57.5977387 69.9025843,63.8901994 54.1958922,72.0623792 C40.076357,68.5592487 29.1020442,65.2832346 21.2729537,62.234337 C14.1759291,59.4705292 7.6854294,56.7333874 1.80145468,54.0229116 L1.79991275,54.0262762 C0.982833809,53.6518269 0.624011623,52.6859024 0.998460965,51.8688234 C1.04578536,51.7655577 1.10379154,51.6675306 1.17153089,51.5763452 C3.59080594,48.3328126 5.93781369,45.6719208 8.21266404,43.5937517 C10.8530117,41.1816858 14.6460563,39.1341973 19.5917976,37.4512863 C49.5441875,43.5276853 66.7263071,48.7722556 71.1381564,53.1849972 Z" id="路径-14" fill="#009CFF"></path>
                                <path d="M69.5380385,21.3733221 C72.2710074,21.8518566 71.5594067,19.7648178 67.4032365,15.1122059 C64.2404478,11.5716318 61.0776592,8.03105767 57.9148705,4.49048357 L57.9155516,4.48987513 C56.0505039,2.4020068 53.2431189,1.41951243 50.4831572,1.88877636 C40.9104638,3.5184678 33.2873176,5.15591976 27.6137617,6.80138559 C21.0869017,8.69432986 11.8823145,12.1227827 0,17.0867441 C4.37615055,23.5434706 7.64670435,27.8970078 9.81166139,30.1473556 C11.9766184,32.3977034 15.2366638,34.832347 19.5917976,37.4512863 C35.0083939,35.066864 51.6571409,29.7075426 69.5380385,21.3733221 Z" id="路径-15" fill="#009CFF"></path>
                                <path d="M73.5715501,17.5848301 L85.3979216,1.42264653 C86.0636713,0.51383344 87.1520447,0.0139126099 88.2752446,0.101010368 C93.7042458,0.52360076 101.209378,2.1026507 110.790621,4.8384271 C119.918043,7.44462195 128.982818,10.5446976 137.984944,14.1386541 L137.985484,14.1373014 C139.65495,14.8037864 140.468028,16.6974493 139.801543,18.366916 C139.627031,18.8040475 139.359788,19.1981297 139.018242,19.5219882 L132.252069,25.9295081 L132.252069,25.9295081 L124.033062,37.3841374 C123.224725,38.5115059 121.790681,39.0026508 120.460918,38.6075591 C112.708433,36.3030624 104.691653,33.6768191 96.4106119,30.7287191 C88.8009168,28.0196221 81.649073,25.2811799 74.9550807,22.5133924 L74.9550298,22.5135155 C73.293773,21.8268226 72.5037329,19.9234333 73.1904257,18.2621766 C73.289758,18.0218706 73.4175289,17.7943337 73.571006,17.5844323 Z" id="路径-16" fill="#009CFF"></path>
                                <path d="M71.5219838,54.7568327 C71.5261362,54.7568327 77.73173,60.5253482 90.1387652,72.0623792 C112.579583,71.3119112 144,51.6797857 144,51.6797857 C144,51.6797857 140.314693,46.5181799 133.804089,42.3250085 C129.463686,39.5295609 125.757161,38.0717224 122.684515,37.9514929 C119.336628,37.8877262 111.432409,39.9747296 98.9718578,44.2125032 C80.2810311,50.5691635 71.5188901,54.7568327 71.5219838,54.7568327 Z" id="路径-17" fill="#009CFF"></path>
                                <g id="路径-2" transform="translate(19.5918, 20.9109)">
                                    <mask id="mask-4" fill="white">
                                        <use xlink:href="#path-3"></use>
                                    </mask>
                                    <g id="蒙版">
                                        <use fill="#1B1B1B" fill-rule="evenodd" xlink:href="#path-3"></use>
                                        <use fill="black" fill-opacity="1" filter="url(#filter-5)" xlink:href="#path-3"></use>
                                    </g>
                                    <line x1="51.9301947" y1="32.488061" x2="51.9301947" y2="2.18185453" stroke="#FFFFFF" stroke-width="2.44111522" stroke-linecap="round" mask="url(#mask-4)"></line>
                                </g>
                            </g>
                            <path d="M25.3913617,78.921111 C32.3172202,83.6759152 32.9437604,82.0491391 25.6276269,84.1456853" id="路径-3" stroke="#1B1B1B" stroke-width="2.44111522" stroke-linecap="round"></path>
                            <path d="M53.1323393,84.0634602 C38.9270104,86.22641 39.6444567,84.2475654 53.6939432,90.3532416" id="路径-4" stroke="#1B1B1B" stroke-width="2.44111522" stroke-linecap="round"></path>
                        </g>
                    </g>
                </g>
            </g>
        </g>
    </g>
</svg>